<svg xmlns="http://www.w3.org/2000/svg" width="1440" height="900" viewBox="0 0 1440 900">
<rect width="100%" height="100%" fill="#0B1220"/>
<style>text{font-family:Inter,Arial,sans-serif;fill:#E8EEF7}.muted{fill:#9FB0C7}.small{font-size:13px}.label{font-size:14px;font-weight:600}.title{font-size:22px;font-weight:700}.h2{font-size:17px;font-weight:700}.mono{font-family:ui-monospace,SFMono-Regular,Menlo,monospace}</style>
<text x="28" y="38" class="title">F9 reference — Workspace câblage / Expanded</text><rect x="24" y="58" width="1392" height="58" rx="15" fill="#111C2E" stroke="#2A3A52"/><text x="46" y="94" class="label">Accueil</text><text x="128" y="94" class="label">Tableau de bord</text><text x="270" y="94" class="label">Gérer la session</text><rect x="1122" y="72" width="124" height="30" rx="10" fill="#38BDF8" opacity="0.16"/><text x="1148" y="93" class="small">Câblage</text><rect x="1260" y="72" width="132" height="30" rx="10" fill="#17263D"/><text x="1280" y="93" class="small muted">Simulation arrêtée</text><rect x="24" y="132" width="238" height="700" rx="18" fill="#111C2E" stroke="#2A3A52"/><rect x="278" y="132" width="862" height="700" rx="18" fill="#F5F1E7"/><rect x="1156" y="132" width="260" height="700" rx="18" fill="#111C2E" stroke="#2A3A52"/><text x="44" y="170" class="h2">Composants</text><text x="44" y="198" class="small muted">Rechercher</text><rect x="42" y="224" width="202" height="76" rx="14" fill="#17263D" stroke="#2A3A52"/><circle cx="72" cy="262" r="17" fill="#38BDF8" opacity="0.18"/><rect x="66" y="255" width="12" height="14" rx="3" fill="#38BDF8"/><text x="100" y="257" class="label">Source DC</text><text x="100" y="279" class="small muted">Alimentation</text><rect x="42" y="320" width="202" height="76" rx="14" fill="#17263D" stroke="#2A3A52"/><circle cx="72" cy="358" r="17" fill="#38BDF8" opacity="0.18"/><rect x="66" y="351" width="12" height="14" rx="3" fill="#38BDF8"/><text x="100" y="353" class="label">Interrupteur</text><text x="100" y="375" class="small muted">Commande</text><rect x="42" y="416" width="202" height="76" rx="14" fill="#17263D" stroke="#2A3A52"/><circle cx="72" cy="454" r="17" fill="#38BDF8" opacity="0.18"/><rect x="66" y="447" width="12" height="14" rx="3" fill="#38BDF8"/><text x="100" y="449" class="label">Résistance</text><text x="100" y="471" class="small muted">Charge</text><rect x="42" y="512" width="202" height="76" rx="14" fill="#17263D" stroke="#2A3A52"/><circle cx="72" cy="550" r="17" fill="#38BDF8" opacity="0.18"/><rect x="66" y="543" width="12" height="14" rx="3" fill="#38BDF8"/><text x="100" y="545" class="label">Multimètre</text><text x="100" y="567" class="small muted">Mesure</text><rect x="42" y="608" width="202" height="76" rx="14" fill="#17263D" stroke="#2A3A52"/><circle cx="72" cy="646" r="17" fill="#38BDF8" opacity="0.18"/><rect x="66" y="639" width="12" height="14" rx="3" fill="#38BDF8"/><text x="100" y="641" class="label">Moteur</text><text x="100" y="663" class="small muted">Récepteur</text><line x1="298" y1="152" x2="298" y2="812" stroke="#D8D1C3" stroke-width="1" opacity="0.55"/><line x1="322" y1="152" x2="322" y2="812" stroke="#D8D1C3" stroke-width="1" opacity="0.55"/><line x1="346" y1="152" x2="346" y2="812" stroke="#D8D1C3" stroke-width="1" opacity="0.55"/><line x1="370" y1="152" x2="370" y2="812" stroke="#D8D1C3" stroke-width="1" opacity="0.55"/><line x1="394" y1="152" x2="394" y2="812" stroke="#D8D1C3" stroke-width="1" opacity="0.55"/><line x1="418" y1="152" x2="418" y2="812" stroke="#D8D1C3" stroke-width="1" opacity="0.55"/><line x1="442" y1="152" x2="442" y2="812" stroke="#D8D1C3" stroke-width="1" opacity="0.55"/><line x1="466" y1="152" x2="466" y2="812" stroke="#D8D1C3" stroke-width="1" opacity="0.55"/><line x1="490" y1="152" x2="490" y2="812" stroke="#D8D1C3" stroke-width="1" opacity="0.55"/><line x1="514" y1="152" x2="514" y2="812" stroke="#D8D1C3" stroke-width="1" opacity="0.55"/><line x1="538" y1="152" x2="538" y2="812" stroke="#D8D1C3" stroke-width="1" opacity="0.55"/><line x1="562" y1="152" x2="562" y2="812" stroke="#D8D1C3" stroke-width="1" opacity="0.55"/><line x1="586" y1="152" x2="586" y2="812" stroke="#D8D1C3" stroke-width="1" opacity="0.55"/><line x1="610" y1="152" x2="610" y2="812" stroke="#D8D1C3" stroke-width="1" opacity="0.55"/><line x1="634" y1="152" x2="634" y2="812" stroke="#D8D1C3" stroke-width="1" opacity="0.55"/><line x1="658" y1="152" x2="658" y2="812" stroke="#D8D1C3" stroke-width="1" opacity="0.55"/><line x1="682" y1="152" x2="682" y2="812" stroke="#D8D1C3" stroke-width="1" opacity="0.55"/><line x1="706" y1="152" x2="706" y2="812" stroke="#D8D1C3" stroke-width="1" opacity="0.55"/><line x1="730" y1="152" x2="730" y2="812" stroke="#D8D1C3" stroke-width="1" opacity="0.55"/><line x1="754" y1="152" x2="754" y2="812" stroke="#D8D1C3" stroke-width="1" opacity="0.55"/><line x1="778" y1="152" x2="778" y2="812" stroke="#D8D1C3" stroke-width="1" opacity="0.55"/><line x1="802" y1="152" x2="802" y2="812" stroke="#D8D1C3" stroke-width="1" opacity="0.55"/><line x1="826" y1="152" x2="826" y2="812" stroke="#D8D1C3" stroke-width="1" opacity="0.55"/><line x1="850" y1="152" x2="850" y2="812" stroke="#D8D1C3" stroke-width="1" opacity="0.55"/><line x1="874" y1="152" x2="874" y2="812" stroke="#D8D1C3" stroke-width="1" opacity="0.55"/><line x1="898" y1="152" x2="898" y2="812" stroke="#D8D1C3" stroke-width="1" opacity="0.55"/><line x1="922" y1="152" x2="922" y2="812" stroke="#D8D1C3" stroke-width="1" opacity="0.55"/><line x1="946" y1="152" x2="946" y2="812" stroke="#D8D1C3" stroke-width="1" opacity="0.55"/><line x1="970" y1="152" x2="970" y2="812" stroke="#D8D1C3" stroke-width="1" opacity="0.55"/><line x1="994" y1="152" x2="994" y2="812" stroke="#D8D1C3" stroke-width="1" opacity="0.55"/><line x1="1018" y1="152" x2="1018" y2="812" stroke="#D8D1C3" stroke-width="1" opacity="0.55"/><line x1="1042" y1="152" x2="1042" y2="812" stroke="#D8D1C3" stroke-width="1" opacity="0.55"/><line x1="1066" y1="152" x2="1066" y2="812" stroke="#D8D1C3" stroke-width="1" opacity="0.55"/><line x1="1090" y1="152" x2="1090" y2="812" stroke="#D8D1C3" stroke-width="1" opacity="0.55"/><line x1="1114" y1="152" x2="1114" y2="812" stroke="#D8D1C3" stroke-width="1" opacity="0.55"/><line x1="298" y1="152" x2="1120" y2="152" stroke="#D8D1C3" stroke-width="1" opacity="0.55"/><line x1="298" y1="176" x2="1120" y2="176" stroke="#D8D1C3" stroke-width="1" opacity="0.55"/><line x1="298" y1="200" x2="1120" y2="200" stroke="#D8D1C3" stroke-width="1" opacity="0.55"/><line x1="298" y1="224" x2="1120" y2="224" stroke="#D8D1C3" stroke-width="1" opacity="0.55"/><line x1="298" y1="248" x2="1120" y2="248" stroke="#D8D1C3" stroke-width="1" opacity="0.55"/><line x1="298" y1="272" x2="1120" y2="272" stroke="#D8D1C3" stroke-width="1" opacity="0.55"/><line x1="298" y1="296" x2="1120" y2="296" stroke="#D8D1C3" stroke-width="1" opacity="0.55"/><line x1="298" y1="320" x2="1120" y2="320" stroke="#D8D1C3" stroke-width="1" opacity="0.55"/><line x1="298" y1="344" x2="1120" y2="344" stroke="#D8D1C3" stroke-width="1" opacity="0.55"/><line x1="298" y1="368" x2="1120" y2="368" stroke="#D8D1C3" stroke-width="1" opacity="0.55"/><line x1="298" y1="392" x2="1120" y2="392" stroke="#D8D1C3" stroke-width="1" opacity="0.55"/><line x1="298" y1="416" x2="1120" y2="416" stroke="#D8D1C3" stroke-width="1" opacity="0.55"/><line x1="298" y1="440" x2="1120" y2="440" stroke="#D8D1C3" stroke-width="1" opacity="0.55"/><line x1="298" y1="464" x2="1120" y2="464" stroke="#D8D1C3" stroke-width="1" opacity="0.55"/><line x1="298" y1="488" x2="1120" y2="488" stroke="#D8D1C3" stroke-width="1" opacity="0.55"/><line x1="298" y1="512" x2="1120" y2="512" stroke="#D8D1C3" stroke-width="1" opacity="0.55"/><line x1="298" y1="536" x2="1120" y2="536" stroke="#D8D1C3" stroke-width="1" opacity="0.55"/><line x1="298" y1="560" x2="1120" y2="560" stroke="#D8D1C3" stroke-width="1" opacity="0.55"/><line x1="298" y1="584" x2="1120" y2="584" stroke="#D8D1C3" stroke-width="1" opacity="0.55"/><line x1="298" y1="608" x2="1120" y2="608" stroke="#D8D1C3" stroke-width="1" opacity="0.55"/><line x1="298" y1="632" x2="1120" y2="632" stroke="#D8D1C3" stroke-width="1" opacity="0.55"/><line x1="298" y1="656" x2="1120" y2="656" stroke="#D8D1C3" stroke-width="1" opacity="0.55"/><line x1="298" y1="680" x2="1120" y2="680" stroke="#D8D1C3" stroke-width="1" opacity="0.55"/><line x1="298" y1="704" x2="1120" y2="704" stroke="#D8D1C3" stroke-width="1" opacity="0.55"/><line x1="298" y1="728" x2="1120" y2="728" stroke="#D8D1C3" stroke-width="1" opacity="0.55"/><line x1="298" y1="752" x2="1120" y2="752" stroke="#D8D1C3" stroke-width="1" opacity="0.55"/><line x1="298" y1="776" x2="1120" y2="776" stroke="#D8D1C3" stroke-width="1" opacity="0.55"/><line x1="298" y1="800" x2="1120" y2="800" stroke="#D8D1C3" stroke-width="1" opacity="0.55"/><line x1="430" y1="420" x2="600" y2="420" stroke="#475569" stroke-width="6" stroke-linecap="round"/><line x1="680" y1="420" x2="830" y2="420" stroke="#475569" stroke-width="6" stroke-linecap="round"/><line x1="910" y1="420" x2="1010" y2="420" stroke="#475569" stroke-width="6" stroke-linecap="round"/><rect x="356" y="380" width="68" height="80" rx="14" fill="#E5EDF4" stroke="#5D7185" stroke-width="2"/><text x="378" y="428" style="font:700 16px Inter,Arial;fill:#213043">V1</text><circle cx="344" cy="420" r="10" fill="#E7A94B" stroke="#1F2937" stroke-width="3"/><circle cx="436" cy="420" r="10" fill="#E7A94B" stroke="#1F2937" stroke-width="3"/><rect x="606" y="380" width="68" height="80" rx="14" fill="#E5EDF4" stroke="#5D7185" stroke-width="2"/><text x="628" y="428" style="font:700 16px Inter,Arial;fill:#213043">S1</text><circle cx="594" cy="420" r="10" fill="#E7A94B" stroke="#1F2937" stroke-width="3"/><circle cx="686" cy="420" r="10" fill="#E7A94B" stroke="#1F2937" stroke-width="3"/><rect x="836" y="380" width="68" height="80" rx="14" fill="#E5EDF4" stroke="#5D7185" stroke-width="2"/><text x="858" y="428" style="font:700 16px Inter,Arial;fill:#213043">R1</text><circle cx="824" cy="420" r="10" fill="#E7A94B" stroke="#1F2937" stroke-width="3"/><circle cx="916" cy="420" r="10" fill="#E7A94B" stroke="#1F2937" stroke-width="3"/><rect x="598" y="368" width="84" height="104" rx="18" fill="none" stroke="#38BDF8" stroke-width="3" stroke-dasharray="7 5"/><text x="614" y="495" style="font:600 13px Inter,Arial;fill:#0F4C6A">Sélectionné</text><text x="1178" y="170" class="h2">Propriétés</text><text x="1178" y="205" class="small muted">S1 · Interrupteur</text><rect x="1178" y="230" width="216" height="52" rx="12" fill="#17263D"/><text x="1194" y="251" class="small muted">État UI</text><text x="1194" y="271" class="label">Sélectionné</text><rect x="1178" y="296" width="216" height="76" rx="12" fill="#17263D"/><text x="1194" y="319" class="small muted">Commande</text><text x="1194" y="345" class="label">Normalement ouvert</text><text x="1178" y="420" class="h2">Outils</text><rect x="1178" y="444" width="216" height="38" rx="10" fill="#17263D"/><text x="1194" y="469" class="small">Mesures</text><rect x="1178" y="494" width="216" height="38" rx="10" fill="#17263D"/><text x="1194" y="519" class="small">EIE</text><rect x="1178" y="544" width="216" height="38" rx="10" fill="#17263D"/><text x="1194" y="569" class="small">Historique énergie</text><rect x="24" y="846" width="1392" height="34" rx="10" fill="#111C2E"/><circle cx="48" cy="863" r="5" fill="#34D399"/><text x="62" y="868" class="small muted">Topologie cohérente · simulation arrêtée · 100%</text><text x="988" y="868" class="small muted">Canvas prioritaire · panneaux contextuels</text></svg>